<svg width="280.000000" height="498.000000" viewBox="0 0 280 498" fill="none" xmlns="http://www.w3.org/2000/svg" xmlns:xlink="http://www.w3.org/1999/xlink">
	<desc>
			Created with Pixso.
	</desc>
	<defs>
		<filter id="filter_22_4735_dd" x="-10.000000" y="83.000000" width="300.000000" height="427.000000" filterUnits="userSpaceOnUse" color-interpolation-filters="sRGB">
			<feFlood flood-opacity="0" result="BackgroundImageFix"/>
			<feColorMatrix in="SourceAlpha" type="matrix" values="0 0 0 0 0 0 0 0 0 0 0 0 0 0 0 0 0 0 127 0" result="hardAlpha"/>
			<feOffset dx="0" dy="2"/>
			<feGaussianBlur stdDeviation="3.33333"/>
			<feComposite in2="hardAlpha" operator="out" k2="-1" k3="1"/>
			<feColorMatrix type="matrix" values="0 0 0 0 1 0 0 0 0 1 0 0 0 0 1 0 0 0 0.25 0"/>
			<feBlend mode="normal" in2="BackgroundImageFix" result="effect_dropShadow_1"/>
			<feBlend mode="normal" in="SourceGraphic" in2="effect_dropShadow_1" result="shape"/>
		</filter>
	</defs>
	<path id="Слияние" d="M68 72C68 32.2355 100.235 0 140 0C179.765 0 212 32.2355 212 72C212 111.765 179.765 144 140 144C100.235 144 68 111.765 68 72ZM78 72C78 37.7583 105.758 10 140 10C174.242 10 202 37.7583 202 72C202 106.242 174.242 134 140 134C105.758 134 78 106.242 78 72ZM56.5249 91L10 91C4.47705 91 0 95.4771 0 101L0 488C0 493.523 4.47705 498 10 498L270 498C275.523 498 280 493.523 280 488L280 101C280 95.4772 275.523 91 270 91L223.475 91C218.888 91 214.952 94.1481 213.396 98.4637C202.559 128.516 173.788 150 140 150C106.212 150 77.4414 128.516 66.604 98.4637C65.0479 94.1481 61.1123 91 56.5249 91Z" clip-rule="evenodd" fill="#FFFFFF" fill-opacity="1.000000" fill-rule="evenodd"/>
</svg>
